<svg
  xmlns="http://www.w3.org/2000/svg"
  viewBox="0 0 96 96"
  fill="none"
>
  <title>FormBridge logo</title>
  <desc>
    A schema graph bridged into web and native interfaces, representing one
    form runtime across platforms.
  </desc>

  <defs>
    <linearGradient
      id="formbridge-core"
      x1="37"
      y1="24"
      x2="60"
      y2="47"
      gradientUnits="userSpaceOnUse"
    >
      <stop stop-color="#12B4A8" />
      <stop offset="1" stop-color="#0F6FDC" />
    </linearGradient>
    <linearGradient
      id="formbridge-bridge"
      x1="24"
      y1="58"
      x2="72"
      y2="58"
      gradientUnits="userSpaceOnUse"
    >
      <stop stop-color="#18354D" />
      <stop offset="0.55" stop-color="#0F6FDC" />
      <stop offset="1" stop-color="#18354D" />
    </linearGradient>
  </defs>

  <path
    d="M24 58C28.5 43.5 38.5 35 48 35C57.5 35 67.5 43.5 72 58"
    stroke="url(#formbridge-bridge)"
    stroke-linecap="round"
    stroke-width="7"
  />

  <rect
    x="8.5"
    y="49.5"
    width="29"
    height="22"
    rx="6"
    fill="#FFF"
    stroke="#18354D"
    stroke-width="2.5"
  />
  <path
    d="M13 55H33"
    stroke="#D8E5F0"
    stroke-linecap="round"
    stroke-width="2"
  />
  <circle cx="16.5" cy="55" r="1.2" fill="#0F6FDC" />
  <circle cx="20.5" cy="55" r="1.2" fill="#12B4A8" />
  <rect x="14" y="59" width="10.5" height="3.5" rx="1.75" fill="#0F6FDC" />
  <rect x="14" y="65" width="16" height="3.5" rx="1.75" fill="#C3D7EA" />

  <rect
    x="58.5"
    y="37.5"
    width="20"
    height="39"
    rx="9"
    fill="#FFF"
    stroke="#18354D"
    stroke-width="2.5"
  />
  <rect x="66" y="42.5" width="5" height="1.75" rx="0.875" fill="#D8E5F0" />
  <rect x="63.5" y="53" width="10" height="3.5" rx="1.75" fill="#12B4A8" />
  <rect x="62" y="65" width="13" height="4" rx="2" fill="#0F6FDC" />

  <circle
    cx="48"
    cy="33"
    r="14"
    fill="url(#formbridge-core)"
    stroke="#18354D"
    stroke-width="2.5"
  />

  <path
    d="M48 26.5L42 32.5M48 26.5L54 32.5M42 32.5L48 38.5M54 32.5L48 38.5M42 32.5H54"
    stroke="#FFF"
    stroke-linecap="round"
    stroke-linejoin="round"
    stroke-width="1.8"
  />
  <circle cx="48" cy="26.5" r="2.4" fill="#FFF" />
  <circle cx="42" cy="32.5" r="2.4" fill="#FFF" />
  <circle cx="54" cy="32.5" r="2.4" fill="#FFF" />
  <circle cx="48" cy="38.5" r="2.4" fill="#FFF" />
</svg>
