<svg width="1200" height="760" viewBox="0 0 1200 760" fill="none" xmlns="http://www.w3.org/2000/svg">
  <defs>
    <linearGradient id="bg" x1="80" y1="60" x2="1100" y2="700" gradientUnits="userSpaceOnUse">
      <stop stop-color="#0F172A"/>
      <stop offset="1" stop-color="#111827"/>
    </linearGradient>
    <linearGradient id="popover" x1="700" y1="180" x2="1020" y2="420" gradientUnits="userSpaceOnUse">
      <stop stop-color="#F8FAFC"/>
      <stop offset="1" stop-color="#E2E8F0"/>
    </linearGradient>
  </defs>
  <rect width="1200" height="760" rx="28" fill="url(#bg)"/>
  <rect x="70" y="70" width="1060" height="620" rx="26" fill="#0B1220" stroke="#1F2937" stroke-width="2"/>
  <rect x="70" y="70" width="220" height="620" rx="26" fill="#0A1020"/>
  <rect x="104" y="118" width="110" height="18" rx="9" fill="#E2E8F0"/>
  <rect x="104" y="170" width="132" height="14" rx="7" fill="#334155"/>
  <rect x="104" y="208" width="154" height="14" rx="7" fill="#334155"/>
  <rect x="104" y="246" width="144" height="14" rx="7" fill="#334155"/>
  <rect x="324" y="118" width="180" height="26" rx="13" fill="#1E293B"/>
  <rect x="324" y="190" width="320" height="170" rx="24" fill="#152238"/>
  <rect x="682" y="190" width="346" height="170" rx="24" fill="#152238"/>
  <rect x="324" y="402" width="704" height="220" rx="24" fill="#121C30"/>
  <rect x="352" y="222" width="264" height="30" rx="10" fill="#CBD5E1"/>
  <rect x="352" y="270" width="220" height="18" rx="9" fill="#475569"/>
  <rect x="352" y="302" width="180" height="18" rx="9" fill="#475569"/>
  <rect x="710" y="222" width="260" height="30" rx="10" fill="#CBD5E1"/>
  <rect x="710" y="270" width="210" height="18" rx="9" fill="#475569"/>
  <rect x="352" y="430" width="280" height="32" rx="10" fill="#CBD5E1"/>
  <rect x="352" y="480" width="360" height="16" rx="8" fill="#334155"/>
  <rect x="352" y="512" width="330" height="16" rx="8" fill="#334155"/>
  <rect x="352" y="544" width="250" height="16" rx="8" fill="#334155"/>
  <rect x="300" y="170" width="380" height="210" rx="28" fill="#020617" fill-opacity="0.48"/>
  <rect x="324" y="190" width="320" height="170" rx="24" fill="#1D4ED8" fill-opacity="0.15" stroke="#5EEAD4" stroke-width="3"/>
  <rect x="714" y="156" width="318" height="212" rx="28" fill="url(#popover)" stroke="#CBD5E1" stroke-width="2"/>
  <rect x="740" y="186" width="88" height="18" rx="9" fill="#0F172A" fill-opacity="0.12"/>
  <rect x="740" y="224" width="214" height="26" rx="9" fill="#0F172A"/>
  <rect x="740" y="270" width="246" height="14" rx="7" fill="#64748B"/>
  <rect x="740" y="298" width="220" height="14" rx="7" fill="#64748B"/>
  <rect x="740" y="340" width="90" height="38" rx="19" fill="#E2E8F0" stroke="#94A3B8"/>
  <rect x="842" y="340" width="122" height="38" rx="19" fill="#14B8A6"/>
  <text x="740" y="199" fill="#475569" font-family="Arial, sans-serif" font-size="14">STEP 1 / 2</text>
  <text x="740" y="243" fill="#0F172A" font-family="Arial, sans-serif" font-size="26" font-weight="700">Welcome</text>
  <text x="740" y="282" fill="#475569" font-family="Arial, sans-serif" font-size="16">Highlight the dashboard hero and guide the user</text>
  <text x="740" y="309" fill="#475569" font-family="Arial, sans-serif" font-size="16">through the first interaction.</text>
  <text x="768" y="364" fill="#334155" font-family="Arial, sans-serif" font-size="15" font-weight="700">Back</text>
  <text x="881" y="364" fill="#F8FAFC" font-family="Arial, sans-serif" font-size="15" font-weight="700">Next</text>
</svg>
