<svg width="720" height="1280" viewBox="0 0 720 1280" fill="none" xmlns="http://www.w3.org/2000/svg">
  <rect width="720" height="1280" rx="40" fill="#08101F"/>
  <rect x="170" y="56" width="380" height="1168" rx="46" fill="#020617" stroke="#334155" stroke-width="4"/>
  <rect x="198" y="108" width="324" height="60" rx="20" fill="#111827"/>
  <rect x="280" y="78" width="160" height="18" rx="9" fill="#CBD5E1"/>
  <rect x="210" y="210" width="300" height="168" rx="28" fill="#162135"/>
  <rect x="210" y="404" width="300" height="110" rx="24" fill="#111C31"/>
  <rect x="210" y="540" width="300" height="110" rx="24" fill="#111C31"/>
  <rect x="210" y="676" width="300" height="110" rx="24" fill="#111C31"/>
  <rect x="230" y="240" width="188" height="26" rx="10" fill="#E2E8F0"/>
  <rect x="230" y="286" width="144" height="16" rx="8" fill="#475569"/>
  <rect x="230" y="318" width="118" height="16" rx="8" fill="#475569"/>
  <rect x="192" y="192" width="336" height="204" rx="32" fill="#020617" fill-opacity="0.48"/>
  <rect x="210" y="210" width="300" height="168" rx="28" fill="#2563EB" fill-opacity="0.16" stroke="#5EEAD4" stroke-width="4"/>
  <rect x="116" y="816" width="488" height="232" rx="34" fill="#F8FAFC" stroke="#CBD5E1" stroke-width="3"/>
  <rect x="156" y="854" width="104" height="18" rx="9" fill="#CBD5E1"/>
  <rect x="156" y="894" width="216" height="28" rx="10" fill="#0F172A"/>
  <rect x="156" y="942" width="288" height="16" rx="8" fill="#64748B"/>
  <rect x="156" y="972" width="248" height="16" rx="8" fill="#64748B"/>
  <rect x="156" y="1012" width="112" height="42" rx="21" fill="#E2E8F0" stroke="#94A3B8"/>
  <rect x="284" y="1012" width="156" height="42" rx="21" fill="#14B8A6"/>
  <text x="156" y="868" fill="#64748B" font-family="Arial, sans-serif" font-size="16">STEP 1 / 3</text>
  <text x="156" y="916" fill="#0F172A" font-family="Arial, sans-serif" font-size="28" font-weight="700">Welcome</text>
  <text x="156" y="955" fill="#475569" font-family="Arial, sans-serif" font-size="18">Highlight the hero card before the user</text>
  <text x="156" y="982" fill="#475569" font-family="Arial, sans-serif" font-size="18">continues to the next mobile step.</text>
  <text x="192" y="1040" fill="#334155" font-family="Arial, sans-serif" font-size="16" font-weight="700">Back</text>
  <text x="340" y="1040" fill="#F8FAFC" font-family="Arial, sans-serif" font-size="16" font-weight="700">Continue</text>
</svg>
